PathFileType	4	(X/Y/Z)	C:\Users\u0145647\OneDrive - KU Leuven\KU Leuven\c3d2osim\CP16\T0\Data\Processed\ViconC3D\CP16_T0_08_gapFilled.trc
DataRate	CameraRate	NumFrames	NumMarkers	Units	OrigDataRate	OrigDataStartFrame	OrigNumFrames
100.000000	100.000000	4	47	mm	100.000000	547	729
Frame#	Time	C7			T10			CLAV			STRN			LSHO			RSHO			RBAK			LASI			RASI			LPSI			RPSI			LLAT			RLAT			LF1			LF2			LF3			LTHI			LKNE			LMEK			RF1			RF2			RF3			RTHI			RKNE			RMEK			LT1			LT2			LT3			LTIB			LMM			LANK			RT1			RT2			RT3			RTIB			RANK			RMM			LHEE			LSTL			LLCA			LTOE			LCM5			RHEE			RSTL			RLCA			RTOE			RCM5
		X1	Y1	Z1	X2	Y2	Z2	X3	Y3	Z3	X4	Y4	Z4	X5	Y5	Z5	X6	Y6	Z6	X7	Y7	Z7	X8	Y8	Z8	X9	Y9	Z9	X10	Y10	Z10	X11	Y11	Z11	X12	Y12	Z12	X13	Y13	Z13	X14	Y14	Z14	X15	Y15	Z15	X16	Y16	Z16	X17	Y17	Z17	X18	Y18	Z18	X19	Y19	Z19	X20	Y20	Z20	X21	Y21	Z21	X22	Y22	Z22	X23	Y23	Z23	X24	Y24	Z24	X25	Y25	Z25	X26	Y26	Z26	X27	Y27	Z27	X28	Y28	Z28	X29	Y29	Z29	X30	Y30	Z30	X31	Y31	Z31	X32	Y32	Z32	X33	Y33	Z33	X34	Y34	Z34	X35	Y35	Z35	X36	Y36	Z36	X37	Y37	Z37	X38	Y38	Z38	X39	Y39	Z39	X40	Y40	Z40	X41	Y41	Z41	X42	Y42	Z42	X43	Y43	Z43	X44	Y44	Z44	X45	Y45	Z45	X46	Y46	Z46	X47	Y47	Z47

547	5.46	2583.4	1471.8	-349.34	NaN	NaN	NaN	2699.4	1375.9	-301.34	2712.9	1205.7	-285.74	2670.7	1365.8	-498.75	2574.9	1436.1	-147.35	2501.1	1400.8	-234.75	2665	936.67	-422.15	2658.2	933.88	-176.7	2499.7	971	-346.06	NaN	NaN	NaN	2604.9	1010.9	-440.92	2599.8	1013.2	-153.65	2654.7	691.58	-437.79	2666.6	738.72	-443.03	2623.3	722.52	-449.38	2688.8	596.25	-454.35	2680.5	476.19	-380.01	2633.7	479.76	-272.87	2661.6	715.16	-117.72	2660.1	758.15	-126.35	2625.6	739.93	-124.93	2686.4	637.43	-61.857	2734.5	491.75	-106.94	2751.5	490.65	-226.29	2653.7	397.19	-396.92	2679.8	379.64	-371.53	2654.2	348.36	-392.21	2668.9	267.42	-432.22	2552	82.746	-327.06	2568.4	86.832	-416.95	2645.9	387.55	-115.06	2660.6	419	-105.36	2684.8	393.24	-117.28	2593.6	308.37	-91.369	2443.8	219.49	-162.75	2469	230.9	-253.07	NaN	NaN	NaN	2568.6	47.908	-330.07	2579.9	57.638	-423.29	2682.7	58.284	-390.05	2667.1	41.758	-435.49	2395.2	257	-205.39	2456.7	200.88	-254.92	2438.9	186.71	-162.88	2521.8	123.06	-184.28	2481.5	125.34	-144.58
548	5.47	2593.7	1473.3	-349.84	NaN	NaN	NaN	2709.3	1377	-301.69	2722	1206.7	-286.44	2681	1367.6	-499.2	2584.9	1437.7	-147.88	2511.4	1402.4	-235.49	2673.2	937.93	-423.96	2667.1	935.55	-178.44	2508.6	972.76	-347.58	NaN	NaN	NaN	2614.3	1012.9	-442.06	2608.9	1014.6	-155.1	2660.2	692.46	-440.4	2673	739.66	-445.15	2629.8	724.11	-451.45	2693.1	596.69	-457.44	2682.2	476.33	-383.44	2635.7	480.37	-275.98	2672.4	718.85	-118.09	2670.3	762.16	-127	2635.7	741.9	-126.42	2698.6	642.09	-61.569	2750.2	497.26	-106.71	2770.6	496.48	-225.4	2654.5	397.35	-399.99	2680.8	379.78	-374.71	2654.8	348.47	-395.14	2669.3	267.32	-434.89	2551.6	83.444	-327.72	2568.3	86.66	-417.63	2663.8	391.92	-115.05	2677.5	424.5	-106.55	2702.3	398.23	-116.31	2612.6	312.57	-91.252	2471.6	213.36	-166.82	2498.4	225.27	-256.86	NaN	NaN	NaN	2567.6	48.429	-330.63	2579.8	57.461	-423.86	2682.7	58.271	-390.6	2667	41.492	-435.94	2422	247.74	-211.01	2487.5	194.48	-258.64	2468.5	180.48	-166.75	2555	121.48	-185.95	2514.2	122.21	-146.62
549	5.48	2603.9	1474.7	-350.2	NaN	NaN	NaN	2719.1	1378.1	-301.93	2731.5	1207.8	-286.9	2691.4	1369.1	-499.59	2595.1	1438.9	-148.32	2521.9	1403.9	-236.06	2682	939.21	-425.47	2676	936.81	-180.09	2517.3	974.45	-348.84	NaN	NaN	NaN	2623.3	1014.7	-443.21	2617.9	1015.8	-156.49	2665.8	693.08	-443.39	2678.9	740.13	-447.7	2636	725.2	-453.75	2696.9	596.51	-460.12	2683.9	476.44	-386.88	2637.7	481.05	-279.41	2682.7	721.78	-118.66	2680.1	764.77	-127.28	2645.1	742.72	-127.58	2710.3	645.94	-61.308	2765.5	502.7	-106.67	2788	501.67	-224.58	2655.3	397.39	-403.07	2682	379.89	-378.08	2655.5	348.55	-398.05	2669.6	266.63	-437.47	2551.8	84.084	-328.47	2568.4	86.542	-418.36	2682.6	395.13	-118.13	2694.7	429.79	-108.17	2719.9	403.12	-115.64	2631.9	315.58	-91.992	2500.4	206.78	-170.86	2528.4	218.6	-260.4	NaN	NaN	NaN	2567.6	49.109	-331.04	2579.7	57.368	-424.29	2682.5	58.188	-391.03	2666.7	41.15	-436.48	2449.9	237.68	-216.15	2519.1	187.7	-261.98	2499.8	173.76	-170.22	2589.8	119.76	-187.25	2547.9	118.61	-148.54
550	5.49	2614.1	1475.8	-350.56	NaN	NaN	NaN	2728.8	1378.8	-302.12	2741.1	1208.6	-287.36	2701.7	1370.5	-499.96	2605.6	1439.4	-148.52	2532.4	1404.9	-236.37	2690.9	940.25	-427.06	2685.1	937.73	-181.76	2526.3	975.92	-350.23	NaN	NaN	NaN	2632.2	1016.2	-444.31	2627.1	1016.5	-157.94	2671	693.76	-446.12	2684.8	740.59	-450.25	2642.1	726.35	-456.46	2700.3	597.26	-463.57	2686	476.53	-390.36	2640.1	481.61	-282.78	2693	724.48	-119.23	2689.5	766.91	-128.11	2656.1	747.31	-127.62	2721.1	648.99	-61.757	2780.5	507.5	-106.87	2805.5	506.98	-224.23	2656.4	397.53	-406.26	2682.8	379.92	-381.2	2656.3	348.64	-400.99	2669.9	266.2	-440.06	2552	84.934	-329.13	2568.2	86.289	-418.98	2699.3	398.33	-118.12	2710.4	433.36	-110.44	2737.5	406.7	-115.48	2651.1	317	-93.538	2530	199.69	-174.84	2559	211.69	-264	NaN	NaN	NaN	2567.8	49.634	-331.3	2579.9	57.152	-424.47	2682.5	57.842	-391.5	2666.6	40.995	-436.94	2478.4	226.71	-221.75	2551.3	180.26	-265.29	2530.8	166.26	-173.5	2624.3	117.87	-188.17	2582.2	115.07	-149.96
